<?xml version="1.0" encoding="UTF-8" standalone="no"?>
<!-- Created with Inkscape (http://www.inkscape.org/) -->

<svg
   xmlns:dc="http://purl.org/dc/elements/1.1/"
   xmlns:cc="http://creativecommons.org/ns#"
   xmlns:rdf="http://www.w3.org/1999/02/22-rdf-syntax-ns#"
   xmlns:svg="http://www.w3.org/2000/svg"
   xmlns="http://www.w3.org/2000/svg"
   xmlns:xlink="http://www.w3.org/1999/xlink"
   xmlns:sodipodi="http://sodipodi.sourceforge.net/DTD/sodipodi-0.dtd"
   xmlns:inkscape="http://www.inkscape.org/namespaces/inkscape"
   width="4.2333331mm"
   height="4.2333331mm"
   viewBox="0 0 4.2333331 4.2333332"
   version="1.1"
   id="svg8"
   inkscape:version="0.92.5 (2060ec1f9f, 2020-04-08)"
   sodipodi:docname="bikes.svg">
  <defs
     id="defs2">
    <linearGradient
       inkscape:collect="always"
       id="linearGradient1399">
      <stop
         id="stop1397"
         offset="0"
         style="stop-color:#ffffff;stop-opacity:0;" />
      <stop
         id="stop1395"
         offset="1"
         style="stop-color:#ffffff;stop-opacity:1;" />
    </linearGradient>
    <inkscape:path-effect
       effect="spiro"
       id="path-effect1393"
       is_visible="true" />
    <inkscape:path-effect
       effect="spiro"
       id="path-effect1311"
       is_visible="true" />
    <linearGradient
       inkscape:collect="always"
       xlink:href="#linearGradient1399"
       id="linearGradient1401"
       x1="-345.33606"
       y1="-329.06528"
       x2="685.09509"
       y2="-329.06528"
       gradientUnits="userSpaceOnUse"
       spreadMethod="pad" />
  </defs>
  <sodipodi:namedview
     id="base"
     pagecolor="#ffffff"
     bordercolor="#666666"
     borderopacity="1.0"
     inkscape:pageopacity="0.0"
     inkscape:pageshadow="2"
     inkscape:zoom="4.2230385"
     inkscape:cx="4.964318"
     inkscape:cy="62.612243"
     inkscape:document-units="mm"
     inkscape:current-layer="layer6"
     showgrid="false"
     showguides="true"
     inkscape:guide-bbox="true"
     inkscape:window-width="1848"
     inkscape:window-height="1016"
     inkscape:window-x="72"
     inkscape:window-y="27"
     inkscape:window-maximized="1" />
  <metadata
     id="metadata5">
    <rdf:RDF>
      <cc:Work
         rdf:about="">
        <dc:format>image/svg+xml</dc:format>
        <dc:type
           rdf:resource="http://purl.org/dc/dcmitype/StillImage" />
        <dc:title></dc:title>
      </cc:Work>
    </rdf:RDF>
  </metadata>
  <g
     inkscape:groupmode="layer"
     id="layer6"
     inkscape:label="background"
     transform="translate(-13.171405,-261.3576)"
     style="display:none">
    <rect
       style="opacity:1;vector-effect:none;fill:#ececec;fill-opacity:1;stroke:#000000;stroke-width:0;stroke-linecap:round;stroke-linejoin:miter;stroke-miterlimit:4;stroke-dasharray:none;stroke-dashoffset:0;stroke-opacity:1"
       id="rect1389"
       width="4.2333322"
       height="4.2333322"
       x="13.171406"
       y="261.3576"
       ry="0.79942757" />
  </g>
  <g
     inkscape:label="first"
     id="g1384"
     inkscape:groupmode="layer"
     style="display:inline"
     transform="translate(-13.171405,-261.3576)">
    <g
       inkscape:groupmode="layer"
       id="g1374"
       inkscape:label="stand"
       style="display:inline" />
    <g
       inkscape:groupmode="layer"
       id="g1378"
       inkscape:label="bike"
       style="display:inline">
      <path
         inkscape:connector-curvature="0"
         style="color:#000000;font-style:normal;font-variant:normal;font-weight:normal;font-stretch:normal;font-size:medium;line-height:normal;font-family:sans-serif;font-variant-ligatures:normal;font-variant-position:normal;font-variant-caps:normal;font-variant-numeric:normal;font-variant-alternates:normal;font-feature-settings:normal;text-indent:0;text-align:start;text-decoration:none;text-decoration-line:none;text-decoration-style:solid;text-decoration-color:#000000;letter-spacing:normal;word-spacing:normal;text-transform:none;writing-mode:lr-tb;direction:ltr;text-orientation:mixed;dominant-baseline:auto;baseline-shift:baseline;text-anchor:start;white-space:normal;shape-padding:0;clip-rule:nonzero;display:inline;overflow:visible;visibility:visible;opacity:1;isolation:auto;mix-blend-mode:normal;color-interpolation:sRGB;color-interpolation-filters:linearRGB;solid-color:#000000;solid-opacity:1;vector-effect:none;fill:#ffffff;fill-opacity:1;fill-rule:nonzero;stroke:#ffffff;stroke-width:0.09062313;stroke-linecap:round;stroke-linejoin:miter;stroke-miterlimit:4;stroke-dasharray:none;stroke-dashoffset:0;stroke-opacity:1;color-rendering:auto;image-rendering:auto;shape-rendering:auto;text-rendering:auto;enable-background:accumulate"
         d="m 16.277644,262.32046 c -0.01226,-1.2e-4 -0.02464,10e-4 -0.0367,0.004 -0.03475,0.006 -0.06844,0.0196 -0.103339,0.0254 -0.06373,0.0107 -0.128711,-0.002 -0.193046,0.001 -0.06154,0.004 -0.118225,0.009 -0.171991,0.0418 0,0 -0.03962,0.0368 -7.49e-4,0.0464 0.0503,0.0143 0.08319,0.0125 0.119287,0.0208 0.03352,0.007 0.06339,0.0164 0.09329,0.0286 l -0.232785,0.82535 -0.710901,0.22883 c -0.146468,-0.12599 -0.300262,-0.28962 -0.444368,-0.50082 L 14.727,262.63909 c 0.04508,-0.10112 0.147479,-0.13931 0.147479,-0.13931 l 0.246311,0.11231 c 0.01822,0.009 0.03991,6.5e-4 0.04835,-0.0176 0.0084,-0.0182 3.82e-4,-0.0399 -0.01794,-0.0482 l -0.263301,-0.12988 c -0.01214,-0.007 -0.02613,-0.0175 -0.04279,-0.0178 -0.01178,-2.3e-4 -0.02318,0.004 -0.03179,0.0122 l -0.170258,0.13138 a 0.06344252,0.06344253 0 0 0 -0.0299,0.0368 l -0.189487,0.58455 a 0.06344252,0.06344253 0 0 0 0.0013,0.0449 c -0.09641,-0.0462 -0.204321,-0.0721 -0.318196,-0.0721 -0.407472,0 -0.738756,0.33132 -0.738756,0.73879 0,0.40748 0.331284,0.73875 0.738756,0.73875 0.407472,0 0.738756,-0.33127 0.738756,-0.73875 0,-0.25937 -0.134254,-0.48785 -0.336919,-0.6197 l 0.0048,-0.0152 a 0.06344252,0.06344253 0 0 0 0.0309,-0.0377 l 0.01703,-0.0526 c 0.519497,0.72176 1.158266,0.88004 1.158266,0.88004 l 0.0077,0.002 0.05401,-0.005 c 0.02902,0.13916 0.09729,0.26402 0.192671,0.36251 0.131522,0.14381 0.320608,0.23411 0.530528,0.23411 0.210007,0 0.399166,-0.0904 0.530695,-0.23428 0.128724,-0.13301 0.20806,-0.3141 0.20806,-0.51345 0,-0.40748 -0.331283,-0.7388 -0.738755,-0.7388 -0.229406,0 -0.434665,0.10496 -0.57025,0.26952 l -0.0939,-0.0725 0.228074,-0.80866 c 0.0542,0.0158 0.112544,0.014 0.16567,-0.006 0.02765,-0.0107 0.05371,-0.0254 0.07949,-0.0405 0.01617,-0.01 0.03293,-0.0198 0.04315,-0.0368 0.006,-0.01 0.0094,-0.0217 0.0099,-0.0336 5.7e-4,-0.0119 -0.0016,-0.0239 -0.0061,-0.0348 -0.009,-0.0217 -0.02677,-0.038 -0.04696,-0.0458 -0.01157,-0.004 -0.02371,-0.006 -0.03597,-0.006 z m -2.170851,0.9063 c 0.105771,0 0.205551,0.0253 0.293666,0.07 l -0.113339,0.35848 -0.212396,0.19088 a 0.04531609,0.04531609 0 1 0 0.06057,0.0674 l 0.230811,-0.2074 0.114201,-0.36125 c 0.166231,0.11724 0.274625,0.31077 0.274625,0.53007 0,0.35849 -0.289634,0.64814 -0.648128,0.64814 -0.358496,0 -0.648129,-0.28965 -0.648129,-0.64814 0,-0.3585 0.289633,-0.64817 0.648129,-0.64817 z m 2.397727,0.0304 c 0.357467,0 0.646462,0.28899 0.646462,0.64645 0,0.009 -2.05e-4,0.0162 -4.97e-4,0.0243 -0.02691,0.33358 -0.305342,0.59507 -0.645965,0.59507 -0.309868,0 -0.568251,-0.21641 -0.632655,-0.50663 l 0.637432,-0.0677 a 0.04531609,0.04531609 0 0 0 0.01663,-0.0858 l -0.504087,-0.38964 c 0.118328,-0.13266 0.29061,-0.21612 0.482686,-0.21612 z m -0.782448,0.16147 -0.132551,0.46995 c -0.112614,-0.0471 -0.280122,-0.1324 -0.46545,-0.27745 z m 0.09178,0.009 0.06716,0.0519 c -0.07294,0.11451 -0.115242,0.25035 -0.115242,0.39592 0,0.0207 8.93e-4,0.0412 0.0026,0.0613 l -0.03326,0.003 c -0.003,-7.6e-4 -0.02473,-0.006 -0.06056,-0.0187 z m 0.152536,0.1179 0.421177,0.32555 -0.529065,0.0562 c -2.68e-4,-0.007 -4.49e-4,-0.0154 -4.49e-4,-0.023 0,-0.13277 0.0399,-0.25607 0.108337,-0.35865 z"
         id="path1376" />
    </g>
    <g
       inkscape:groupmode="layer"
       id="g1382"
       inkscape:label="basket"
       style="display:inline" />
  </g>
</svg>
