<?xml version="1.0" encoding="UTF-8" standalone="no"?>
<!-- Created with Inkscape (http://www.inkscape.org/) -->

<svg
   xmlns:dc="http://purl.org/dc/elements/1.1/"
   xmlns:cc="http://creativecommons.org/ns#"
   xmlns:rdf="http://www.w3.org/1999/02/22-rdf-syntax-ns#"
   xmlns:svg="http://www.w3.org/2000/svg"
   xmlns="http://www.w3.org/2000/svg"
   xmlns:xlink="http://www.w3.org/1999/xlink"
   xmlns:sodipodi="http://sodipodi.sourceforge.net/DTD/sodipodi-0.dtd"
   xmlns:inkscape="http://www.inkscape.org/namespaces/inkscape"
   width="15.999999"
   height="15.999999"
   viewBox="0 0 4.233333 4.233333"
   version="1.1"
   id="svg8"
   inkscape:version="0.92.5 (2060ec1f9f, 2020-04-08)"
   sodipodi:docname="stands.svg"
   inkscape:export-filename="/home/scheewel/Desktop/APP/OpenVelo/assets/stands.png"
   inkscape:export-xdpi="1.3598509"
   inkscape:export-ydpi="1.3598509">
  <defs
     id="defs2">
    <linearGradient
       inkscape:collect="always"
       id="linearGradient1399">
      <stop
         id="stop1397"
         offset="0"
         style="stop-color:#ffffff;stop-opacity:0;" />
      <stop
         id="stop1395"
         offset="1"
         style="stop-color:#ffffff;stop-opacity:1;" />
    </linearGradient>
    <inkscape:path-effect
       effect="spiro"
       id="path-effect1393"
       is_visible="true" />
    <inkscape:path-effect
       effect="spiro"
       id="path-effect1311"
       is_visible="true" />
    <linearGradient
       inkscape:collect="always"
       xlink:href="#linearGradient1399"
       id="linearGradient1401"
       x1="-345.33606"
       y1="-329.06528"
       x2="685.09509"
       y2="-329.06528"
       gradientUnits="userSpaceOnUse"
       spreadMethod="pad" />
  </defs>
  <sodipodi:namedview
     id="base"
     pagecolor="#ffffff"
     bordercolor="#666666"
     borderopacity="1.0"
     inkscape:pageopacity="0.0"
     inkscape:pageshadow="2"
     inkscape:zoom="23.889113"
     inkscape:cx="-0.91016148"
     inkscape:cy="3.0784906"
     inkscape:document-units="mm"
     inkscape:current-layer="layer6"
     showgrid="false"
     showguides="true"
     inkscape:guide-bbox="true"
     inkscape:window-width="1848"
     inkscape:window-height="1016"
     inkscape:window-x="72"
     inkscape:window-y="27"
     inkscape:window-maximized="1"
     units="px">
    <sodipodi:guide
       position="93.56563,9.2148053"
       orientation="1,0"
       id="guide871"
       inkscape:locked="false" />
    <sodipodi:guide
       position="148.85441,93.565639"
       orientation="0,1"
       id="guide873"
       inkscape:locked="false" />
  </sodipodi:namedview>
  <metadata
     id="metadata5">
    <rdf:RDF>
      <cc:Work
         rdf:about="">
        <dc:format>image/svg+xml</dc:format>
        <dc:type
           rdf:resource="http://purl.org/dc/dcmitype/StillImage" />
        <dc:title />
      </cc:Work>
    </rdf:RDF>
  </metadata>
  <g
     inkscape:groupmode="layer"
     id="layer6"
     inkscape:label="background"
     transform="translate(-13.171405,-261.3576)"
     style="display:none">
    <rect
       style="opacity:1;vector-effect:none;fill:#ececec;fill-opacity:1;stroke:#000000;stroke-width:0;stroke-linecap:round;stroke-linejoin:miter;stroke-miterlimit:4;stroke-dasharray:none;stroke-dashoffset:0;stroke-opacity:1"
       id="rect1389"
       width="4.2333322"
       height="4.2333322"
       x="13.171406"
       y="261.3576"
       ry="0.79942757" />
  </g>
  <g
     inkscape:label="first"
     id="g1384"
     inkscape:groupmode="layer"
     style="display:inline"
     transform="translate(-13.171405,-261.3576)">
    <g
       inkscape:groupmode="layer"
       id="g1374"
       inkscape:label="stand"
       style="display:inline" />
    <g
       inkscape:groupmode="layer"
       id="g1378"
       inkscape:label="bike"
       style="display:none">
      <path
         inkscape:connector-curvature="0"
         style="color:#000000;font-style:normal;font-variant:normal;font-weight:normal;font-stretch:normal;font-size:medium;line-height:normal;font-family:sans-serif;font-variant-ligatures:normal;font-variant-position:normal;font-variant-caps:normal;font-variant-numeric:normal;font-variant-alternates:normal;font-feature-settings:normal;text-indent:0;text-align:start;text-decoration:none;text-decoration-line:none;text-decoration-style:solid;text-decoration-color:#000000;letter-spacing:normal;word-spacing:normal;text-transform:none;writing-mode:lr-tb;direction:ltr;text-orientation:mixed;dominant-baseline:auto;baseline-shift:baseline;text-anchor:start;white-space:normal;shape-padding:0;clip-rule:nonzero;display:inline;overflow:visible;visibility:visible;opacity:1;isolation:auto;mix-blend-mode:normal;color-interpolation:sRGB;color-interpolation-filters:linearRGB;solid-color:#000000;solid-opacity:1;vector-effect:none;fill:#000000;fill-opacity:1;fill-rule:nonzero;stroke:none;stroke-width:3.99851847;stroke-linecap:round;stroke-linejoin:miter;stroke-miterlimit:4;stroke-dasharray:none;stroke-dashoffset:0;stroke-opacity:1;color-rendering:auto;image-rendering:auto;shape-rendering:auto;text-rendering:auto;enable-background:accumulate"
         d="m 150.22642,121.28941 c -0.54083,-0.005 -1.08707,0.0665 -1.61956,0.17067 -1.53324,0.3001 -3.01969,0.86418 -4.55947,1.11911 -2.8121,0.46558 -5.67908,-0.11678 -8.51767,0.0562 -2.71503,0.16547 -5.21641,0.36164 -7.58866,1.84602 0,0 -1.74797,1.62436 -0.0331,2.04853 2.21969,0.63158 3.67047,0.55244 5.26325,0.91784 1.47899,0.33929 2.79709,0.72694 4.11606,1.26168 L 127.01619,165.1262 95.649463,175.22292 C 89.186978,169.66369 82.40118,162.44403 76.042836,153.12559 l 5.764955,-17.78375 c 1.989031,-4.4623 6.507164,-6.14639 6.507164,-6.14639 l 10.867867,4.95538 c 0.803585,0.37772 1.761018,0.0288 2.133238,-0.77734 0.37223,-0.80614 0.0169,-1.76114 -0.7918,-2.12786 l -11.617518,-5.73066 c -0.535578,-0.31633 -1.152984,-0.77183 -1.888177,-0.78725 -0.519585,-0.01 -1.022649,0.18268 -1.4026,0.53723 l -7.512208,5.79719 a 2.7992426,2.7992426 0 0 0 -1.319122,1.62328 l -8.360628,25.79228 a 2.7992426,2.7992426 0 0 0 0.05868,1.9824 c -4.253698,-2.03777 -9.015147,-3.18044 -14.039623,-3.18044 -17.978672,0 -32.595751,14.61873 -32.595751,32.5974 0,17.97867 14.617079,32.59534 32.595751,32.59534 17.978669,0 32.595749,-14.61667 32.595749,-32.59534 0,-11.44409 -5.923579,-21.52529 -14.865728,-27.34282 l 0.212001,-0.6703 a 2.7992426,2.7992426 0 0 0 1.363339,-1.66048 l 0.751718,-2.31838 c 22.92154,31.84595 51.105587,38.82976 51.105587,38.82976 l 0.33887,0.0831 2.38285,-0.25291 c 1.28051,6.13973 4.29282,11.64929 8.50114,15.99475 5.80307,6.34503 14.146,10.32939 23.40819,10.32939 9.26608,0 17.61225,-3.98756 23.41563,-10.33725 5.67961,-5.86865 9.18012,-13.85867 9.18012,-22.65482 0,-17.97867 -14.61708,-32.5974 -32.59575,-32.5974 -10.12196,0 -19.17845,4.63379 -25.16082,11.89192 l -4.14291,-3.20234 10.06325,-35.68031 c 2.39121,0.69766 4.96572,0.6145 7.30971,-0.26572 1.21984,-0.45808 2.36948,-1.11904 3.50733,-1.79065 0.71348,-0.42113 1.45303,-0.87567 1.90388,-1.62328 0.26322,-0.43649 0.41213,-0.95599 0.43722,-1.48153 0.0251,-0.52554 -0.0724,-1.05639 -0.26944,-1.53443 -0.39413,-0.95607 -1.18135,-1.67655 -2.07166,-2.02124 -0.51079,-0.19775 -1.04608,-0.27807 -1.58692,-0.28267 z m -95.783355,39.98853 c 4.667095,0 9.069424,1.11361 12.957301,3.08869 l -5.00084,15.81705 -9.371458,8.42179 a 1.999459,1.999459 0 1 0 2.672127,2.9738 l 10.183925,-9.15119 5.03886,-15.93937 c 7.334534,5.17279 12.117146,13.71221 12.117146,23.38835 0,15.81771 -12.779351,28.59707 -28.597061,28.59707 -15.817713,0 -28.597063,-12.77936 -28.597063,-28.59707 0,-15.81771 12.77935,-28.59912 28.597063,-28.59912 z m 105.793715,1.3435 c 15.77235,0 28.5235,12.75115 28.5235,28.5235 0,0.35951 -0.009,0.71697 -0.0219,1.07323 -1.18765,14.71834 -13.47244,26.25596 -28.5016,26.25596 -13.67219,0 -25.07268,-9.5487 -27.91436,-22.35356 l 28.12512,-2.98703 a 1.999459,1.999459 0 0 0 0.73353,-3.78421 l -22.24156,-17.19154 c 5.22095,-5.85357 12.82242,-9.53635 21.29727,-9.53635 z m -34.5236,7.12457 -5.84843,20.73565 c -4.96883,-2.08015 -12.35973,-5.84186 -20.536873,-12.24195 z m 4.04952,0.37193 2.96306,2.29028 c -3.21812,5.052 -5.08473,11.04571 -5.08473,17.46884 0,0.91221 0.0394,1.81507 0.11323,2.7085 l -1.46748,0.1558 c -0.13399,-0.0334 -1.09109,-0.28066 -2.67171,-0.82528 z m 6.73032,5.2021 18.5834,14.36403 -23.34372,2.47914 c -0.0118,-0.3381 -0.0198,-0.67725 -0.0198,-1.01827 0,-5.85823 1.76048,-11.29877 4.78015,-15.8249 z"
         id="path1376" />
    </g>
    <g
       inkscape:groupmode="layer"
       id="g1382"
       inkscape:label="basket"
       style="display:inline">
      <g
         aria-label="P"
         style="font-style:normal;font-variant:normal;font-weight:normal;font-stretch:normal;font-size:137.74560547px;line-height:1.25;font-family:'Liberation Mono';-inkscape-font-specification:'Liberation Mono, Normal';font-variant-ligatures:normal;font-variant-caps:normal;font-variant-numeric:normal;font-feature-settings:normal;text-align:start;letter-spacing:0px;word-spacing:0px;writing-mode:lr-tb;text-anchor:start;fill:#ffffff;fill-opacity:1;stroke:none;stroke-width:3.44361901"
         id="text869"
         transform="matrix(0.03216893,0,0,0.03216892,11.75963,257.96095)">
        <path
           d="m 141.86802,153.19289 q 0,8.40732 -4.03551,14.99866 -3.96826,6.59135 -11.43396,10.29057 -7.39845,3.69922 -17.15095,3.69922 H 90.347939 v 34.57092 H 77.501547 V 126.02041 H 108.4405 q 16.00755,0 24.68391,7.19667 8.74361,7.12942 8.74361,19.97581 z m -12.91365,0.20177 q 0,-17.08368 -22.06082,-17.08368 H 90.347939 v 35.71431 h 17.083681 q 10.02153,0 15.73851,-4.90987 5.78424,-4.90988 5.78424,-13.72076 z"
           style="font-style:normal;font-variant:normal;font-weight:normal;font-stretch:normal;font-size:137.74560547px;font-family:'Liberation Mono';-inkscape-font-specification:'Liberation Mono, Normal';font-variant-ligatures:normal;font-variant-caps:normal;font-variant-numeric:normal;font-feature-settings:normal;text-align:start;writing-mode:lr-tb;text-anchor:start;fill:#ffffff;fill-opacity:1;stroke-width:3.44361901"
           id="path875"
           inkscape:connector-curvature="0" />
      </g>
    </g>
  </g>
</svg>
